<svg xmlns="http://www.w3.org/2000/svg" version="1.1" xmlns:xlink="http://www.w3.org/1999/xlink" viewBox="0 0 700 700" style="overflow: hidden; display: block;" width="700" height="700"><defs><linearGradient id="two-3" x1="350" y1="-350" x2="350" y2="350" spreadMethod="pad" gradientUnits="userSpaceOnUse"><stop offset="0%" stop-color="hsl(1.4, 100%, 67%)" stop-opacity="1"></stop><stop offset="100%" stop-color="hsl(167, 52%, 78%)" stop-opacity="1"></stop></linearGradient></defs><g id="two-0" transform="matrix(1 0 0 1 0 0)" opacity="1"><path transform="matrix(1 0 0 1 350 350)" id="two-91" d="M 258.950769 72.554603 C 259.746472 97.712188 208.546687 98.263868 201.15217 122.323344 C 188.01114 165.080201 268.889533 222.378449 236.463556 253.190646 C 204.610506 283.458429 152.332396 200.784982 109.845077 211.991377 C 84.490805 218.678784 82.093129 275.02825 56.240694 270.645082 C 2.960983 261.611739 45.785044 122.173057 -8.215477 120.106008 C -85.191765 117.159485 -39.623423 318.965675 -116.231362 327.043708 C -148.074018 330.401401 -174.104672 284.055951 -178.08202 252.284745 C -186.003779 189.005431 -55.87686 127.663097 -95.399732 77.613438 C -129.283115 34.705327 -204.101412 123.580946 -257.501234 111.848569 C -292.310647 104.200657 -332.99071 81.162709 -344.082829 47.293096 C -353.832279 17.523301 -340.621189 -23.743231 -316.289548 -43.472998 C -270.134663 -80.898552 -162.919657 -6.040034 -136.936487 -59.47991 C -117.95292 -98.523625 -200.163443 -127.18949 -208.666496 -169.762786 C -215.22425 -202.596312 -219.486583 -253.200578 -190.262282 -269.540246 C -156.446723 -288.446943 -117.119999 -213.860776 -80.754422 -227.221166 C -43.183429 -241.024415 -59.328818 -317.355049 -22.831798 -333.78906 C 4.335824 -346.022196 37.349181 -324.222552 65.144153 -313.490877 C 91.751741 -303.217653 121.247744 -292.265691 140.568091 -271.284103 C 160.505537 -249.632355 153.874183 -207.58993 177.569559 -190.130573 C 207.470233 -168.098995 277.368817 -211.075366 289.210776 -175.87297 C 309.149052 -116.602784 172.070641 -102.995672 153.967139 -43.13957 C 149.755596 -29.21483 155.250786 -12.284854 163.042951 -0.000001 C 184.29982 33.512827 257.696185 32.888621 258.950769 72.554603 Z " fill="hsl(0, 0%, 89%)" stroke="undefined" stroke-width="1" stroke-opacity="1" fill-opacity="1" visibility="visible" stroke-linecap="butt" stroke-linejoin="miter" stroke-miterlimit="4"></path></g></svg>