<svg xmlns="http://www.w3.org/2000/svg" version="1.1" xmlns:xlink="http://www.w3.org/1999/xlink" xmlns:svgjs="http://svgjs.dev/svgjs" viewBox="0 0 800 800"><g stroke-width="2" stroke="hsl(0, 0%, 80%)" fill="none" stroke-linecap="round"><path d="M418.46 104.48C428.76 106.97 439.07 110.24 449.33 114.13 459.57 118.1 469.72 122.46 479.68 127.05 489.53 131.38 499.06 135.77 508.15 140.13 516.96 144.01 525.13 147.8 532.5 151.47 542.39 156.17 556.35 164.78 560.44 169.02 563.55 173.14 569.33 182.99 574.25 189.02 579.54 193.31 586.42 198.15 595.1 203.53 605.74 209.1 617.96 215.22 631.38 221.85 645.41 228.69 659.25 236.02 671.92 243.78 682.71 251.72 690.65 260.05 695.03 268.69 696.01 277.47 693.26 286.52 687.2 295.76 679.42 305.09 670.49 314.58 661.83 324.16 655.44 333.79 651.92 343.47 652.1 353.15 656.67 362.85 664.83 372.53 675.58 382.14 687.83 391.75 699.16 401.05 707.97 410.02 713.58 419 714.62 427.65 710.97 436 703.44 444.36 692.47 452.44 679.34 460.25 665.56 468.13 652.22 475.82 640.43 483.33 631.19 491.01 624.71 498.62 621.01 506.21 620.22 514.08 621.38 522.04 623.72 530.16 627.08 538.66 630.06 547.42 631.99 556.46 632.95 565.96 631.94 575.77 628.81 585.88 623.99 596.37 617.11 607.07 608.49 617.89 598.59 628.84 587.51 639.67 575.67 650.18 563.34 660.39 550.78 669.95 538.27 678.6 525.84 686.44 513.72 693.03 502.01 698.15 490.57 702.08 479.56 704.34 468.94 704.85 458.57 704.15 448.49 701.81 438.65 697.95 428.94 693.33 419.35 687.65 409.84 681.19 400.37 674.86 390.92 668.41 381.48 662.19 372.04 657.07 362.83 652.82 353.87 649.6 344.92 647.91 336.26 647.29 327.94 647.64 319.65 649.31 311.74 651.62 304.25 654.31 296.82 657.68 289.81 660.93 283.25 663.79 276.68 666.59 270.5 668.55 264.67 669.51 258.67 669.86 252.88 668.96 247.19 666.78 241.11 663.76 234.95 659.46 228.62 653.95 221.73 647.66 214.56 640.31 207.11 632.07 199.14 623.26 191.01 613.77 182.84 603.76 174.54 593.44 166.55 582.78 159.08 571.93 152.05 560.98 145.91 549.95 140.81 538.94 136.49 527.95 133.27 517.04 131.14 506.25 129.5 495.53 128.59 484.94 128.18 474.49 127.52 464.11 126.86 453.86 126.01 443.74 124.35 433.67 122.33 423.69 120.03 413.84 117.13 404 114.35 394.25 112 384.6 109.94 374.96 108.95 365.63 109.18 356.65 110.25 347.65 112.61 338.99 116.1 330.67 120.11 322.35 124.79 314.38 129.85 306.78 134.64 299.17 139.32 291.92 143.73 285.05 147.38 278.14 150.67 271.6 153.68 265.39 156.09 259.12 158.54 253.15 161.22 247.46 163.9 241.62 167.21 235.99 171.3 230.54 175.89 224.85 181.44 219.25 187.92 213.71 195.04 207.83 203.01 201.94 211.68 196.02 220.8 189.71 230.4 183.34 240.32 176.92 250.38 170.15 260.57 163.38 270.79 156.67 280.92 149.75 291 143.02 301 136.59 310.81 130.2 320.57 124.28 330.29 118.97 339.85 113.99 349.43 109.81 359.09 106.52 368.65 103.79 378.35 102.08 388.23 101.44 398.07 101.41 408.14 102.43 418.45 104.48" stroke-dasharray="5 7" transform="rotate(0, 400, 400)" opacity="0.05"></path><path d="M419.41 115.21C429.34 117.66 439.11 120.86 448.68 124.68 458.22 128.58 467.49 132.86 476.43 137.4 485.23 141.71 493.58 146.1 501.36 150.49 508.89 154.44 515.71 158.31 521.72 162.09 529.8 166.99 541.28 175.93 545.11 180.25 548.86 184.34 558.35 193.75 565.99 199.36 573.09 203.28 581.69 207.7 591.83 212.6 603.44 217.64 616.13 223.18 629.41 229.21 642.7 235.41 655.24 242.08 666.18 249.17 675.01 256.41 680.93 264.04 683.46 272.01 682.97 280.09 679.24 288.46 672.8 297.06 665.18 305.74 656.88 314.6 649.15 323.59 643.76 332.63 641.1 341.75 641.86 350.92 646.59 360.11 654.52 369.31 664.75 378.5 676.33 387.69 687.12 396.63 695.67 405.31 701.44 414 703.1 422.44 700.47 430.63 694.21 438.86 684.57 446.87 672.59 454.7 659.6 462.61 646.53 470.39 634.45 478.08 624.32 485.93 616.48 493.78 611.12 501.66 608.49 509.81 607.92 518.08 608.83 526.52 611.15 535.3 613.67 544.31 615.74 553.58 617.43 563.21 617.69 573.09 616.27 583.18 613.51 593.53 608.87 603.99 602.5 614.44 594.86 624.9 585.85 635.13 575.81 644.94 565.05 654.37 553.73 663.08 542.14 670.85 530.37 677.82 518.63 683.55 507.09 687.87 495.66 691.1 484.52 692.77 473.71 692.83 463.08 691.83 452.74 689.34 442.71 685.48 432.78 681 423.07 675.56 413.57 669.43 404.11 663.45 394.79 657.36 385.62 651.47 376.45 646.57 367.63 642.45 359.15 639.25 350.67 637.43 342.55 636.57 334.82 636.59 327.08 637.85 319.73 639.71 312.78 641.97 305.81 644.92 299.22 647.82 292.99 650.44 286.65 653.11 280.59 655.09 274.73 656.23 268.62 656.9 262.57 656.48 256.51 654.92 250.01 652.65 243.35 649.2 236.48 644.62 229.08 639.32 221.44 633 213.59 625.78 205.37 618.01 197.11 609.5 188.96 600.42 180.87 591 173.23 581.16 166.24 571.04 159.8 560.76 154.3 550.33 149.87 539.84 146.18 529.32 143.54 518.8 141.88 508.36 140.62 497.95 139.95 487.62 139.67 477.42 139.06 467.27 138.37 457.24 137.42 447.34 135.67 437.48 133.54 427.74 131.12 418.12 128.14 408.53 125.28 399.05 122.84 389.71 120.69 380.36 119.58 371.36 119.66 362.7 120.58 354.03 122.78 345.71 126.12 337.74 130.02 329.75 134.65 322.11 139.72 314.82 144.61 307.51 149.46 300.54 154.1 293.91 158.01 287.23 161.57 280.86 164.79 274.8 167.35 268.63 169.82 262.72 172.37 257.05 174.76 251.2 177.61 245.52 181.06 239.97 184.87 234.17 189.53 228.43 195.04 222.72 201.15 216.69 208.12 210.64 215.85 204.56 224.09 198.12 232.92 191.64 242.21 185.15 251.76 178.35 261.59 171.59 271.56 164.93 281.58 158.13 291.64 151.54 301.69 145.28 311.65 139.11 321.57 133.44 331.44 128.38 341.21 123.66 350.95 119.72 360.69 116.66 370.37 114.13 380.09 112.58 389.86 112.06 399.62 112.12 409.47 113.17 419.4 115.21" stroke-dasharray="7 3" transform="rotate(4.04, 400, 400)" opacity="0.09"></path><path d="M416.93 125.94C426.41 128.35 435.6 131.48 444.45 135.21 453.26 139.02 461.68 143.23 469.64 147.7 477.49 151.97 484.8 156.35 491.49 160.75 497.98 164.75 503.79 168.71 508.86 172.58 515.84 177.66 526.57 186.96 531.01 191.4 536.12 195.53 550.02 204.67 560.25 209.96 568.88 213.6 578.78 217.66 589.86 222.16 601.91 226.74 614.53 231.79 627.16 237.28 639.31 242.9 650.28 248.96 659.34 255.43 666.21 262.03 670.24 269.01 671.12 276.33 669.41 283.75 664.96 291.47 658.36 299.44 651.06 307.48 643.48 315.74 636.69 324.15 632.25 332.61 630.4 341.19 631.67 349.86 636.52 358.55 644.2 367.3 653.91 376.08 664.84 384.87 675.08 393.48 683.37 401.9 689.24 410.32 691.43 418.57 689.73 426.64 684.67 434.75 676.33 442.72 665.56 450.57 653.51 458.51 640.95 466.39 628.85 474.24 618.16 482.24 609.26 490.28 602.47 498.4 598.14 506.75 595.84 515.24 595.17 523.9 596.15 532.85 597.77 542 599.45 551.35 601.27 560.98 602.21 570.78 601.93 580.71 600.74 590.79 597.96 600.87 593.61 610.84 588.12 620.71 581.22 630.27 573.16 639.32 564.27 647.94 554.57 655.79 544.34 662.69 533.73 668.8 522.9 673.72 512.03 677.3 501.09 679.87 490.27 681.02 479.67 680.69 469.14 679.43 458.85 676.83 448.85 673.02 438.92 668.68 429.23 663.49 419.81 657.69 410.42 652.06 401.24 646.32 392.3 640.74 383.35 636.08 374.82 632.09 366.69 628.91 358.54 626.98 350.78 625.91 343.41 625.64 336.01 626.51 328.97 627.95 322.29 629.78 315.53 632.3 309.07 634.84 302.87 637.19 296.49 639.68 290.27 641.61 284.15 642.84 277.72 643.73 271.25 643.69 264.69 642.65 257.69 641.01 250.51 638.31 243.12 634.56 235.3 630.18 227.3 624.82 219.21 618.58 210.91 611.81 202.72 604.3 194.79 596.17 187.08 587.67 179.95 578.71 173.57 569.4 167.8 559.89 163.01 550.15 159.26 540.28 156.2 530.33 154.1 520.33 152.88 510.34 151.92 500.34 151.45 490.4 151.24 480.54 150.63 470.7 149.87 460.97 148.81 451.35 146.94 441.77 144.7 432.29 142.18 422.96 139.12 413.64 136.19 404.44 133.68 395.39 131.45 386.34 130.22 377.64 130.16 369.29 130.93 360.92 132.94 352.9 136.1 345.21 139.86 337.51 144.39 330.13 149.43 323.09 154.38 316.01 159.37 309.25 164.21 302.79 168.41 296.26 172.25 290 175.74 284.01 178.53 277.9 181.14 271.99 183.69 266.28 185.94 260.38 188.48 254.61 191.45 248.94 194.62 243.02 198.48 237.13 203.11 231.27 208.22 225.09 214.16 218.9 220.87 212.69 228.08 206.16 235.97 199.62 244.4 193.08 253.18 186.31 262.35 179.6 271.79 173.03 281.4 166.38 291.14 159.97 300.94 153.92 310.77 148 320.6 142.58 330.39 137.78 340.15 133.33 349.87 129.65 359.54 126.81 369.18 124.49 378.79 123.1 388.35 122.7 397.91 122.83 407.44 123.91 416.92 125.93" stroke-dasharray="3 8" transform="rotate(8.08, 400, 400)" opacity="0.13"></path><path d="M411.47 136.66C420.44 139.03 429.03 142.09 437.19 145.72 445.32 149.44 452.98 153.56 460.13 157.95 467.19 162.17 473.7 166.52 479.61 170.91 485.42 174.96 490.62 178.97 495.23 182.92 501.85 188.18 513.37 197.86 519.09 202.44 523.55 205.21 528.44 208.11 533.99 211.19 540.6 214.11 548.16 217.28 556.77 220.76 566.53 224.18 577.24 227.97 588.71 232.14 600.67 236.35 612.7 240.97 624.27 246 634.97 251.11 644.18 256.64 651.32 262.56 656.31 268.57 658.61 274.95 658.08 281.67 655.41 288.48 650.5 295.59 643.94 302.97 637.09 310.41 630.29 318.08 624.45 325.94 620.92 333.84 619.81 341.9 621.53 350.1 626.46 358.3 633.87 366.62 643.07 375.03 653.37 383.43 663.07 391.73 671.06 399.9 676.97 408.07 679.62 416.14 678.75 424.1 674.81 432.1 667.74 440.03 658.22 447.89 647.22 455.85 635.36 463.79 623.52 471.75 612.56 479.86 602.93 488.04 594.99 496.31 589.17 504.78 585.23 513.39 582.94 522.16 582.4 531.15 582.8 540.3 583.66 549.6 585.09 559.09 586.12 568.69 586.41 578.31 586.21 587.99 584.79 597.59 582.06 606.98 578.43 616.19 573.48 625.01 567.34 633.26 560.39 641.05 552.5 648.05 543.88 654.09 534.78 659.38 525.23 663.53 515.42 666.43 505.42 668.42 495.34 669.09 485.32 668.43 475.27 666.96 465.36 664.3 455.65 660.55 445.96 656.37 436.49 651.45 427.26 645.97 418.05 640.68 409.07 635.28 400.33 630.02 391.59 625.58 383.27 621.73 375.36 618.58 367.42 616.57 359.86 615.31 352.66 614.77 345.4 615.28 338.46 616.32 331.8 617.74 325.01 619.84 318.45 622.01 312.05 624.06 305.43 626.32 298.88 628.14 292.33 629.38 285.47 630.41 278.51 630.64 271.42 630 263.95 628.9 256.32 626.83 248.52 623.82 240.43 620.26 232.27 615.78 224.13 610.46 215.96 604.65 208.04 598.09 200.53 590.91 193.36 583.36 186.87 575.3 181.2 566.84 176.17 558.15 172.1 549.18 169.04 540.01 166.58 530.73 164.97 521.33 164.11 511.88 163.41 502.4 163.06 492.92 162.87 483.48 162.21 474.05 161.34 464.69 160.15 455.42 158.16 446.17 155.81 437.02 153.19 428 150.08 418.99 147.09 410.1 144.52 401.35 142.22 392.59 140.89 384.18 140.69 376.11 141.29 368.02 143.11 360.25 146.06 352.82 149.64 345.35 154.04 338.19 158.99 331.34 163.96 324.44 169.05 317.82 174.06 311.47 178.52 305.04 182.66 298.84 186.45 292.87 189.55 286.76 192.38 280.83 195.06 275.04 197.32 269.07 199.71 263.19 202.38 257.39 205.07 251.34 208.3 245.32 212.15 239.31 216.37 233.02 221.33 226.72 227 220.41 233.15 213.84 239.98 207.27 247.41 200.74 255.23 194.03 263.52 187.43 272.18 180.99 281.07 174.52 290.21 168.33 299.49 162.52 308.89 156.86 318.35 151.72 327.81 147.2 337.31 143.02 346.78 139.59 356.17 136.99 365.58 134.87 374.91 133.64 384.14 133.34 393.37 133.55 402.49 134.66 411.46 136.66" stroke-dasharray="2 9" transform="rotate(12.12, 400, 400)" opacity="0.16"></path><path d="M403.99 147.39C412.42 149.7 420.43 152.68 427.99 156.21 435.53 159.84 442.58 163.85 449.14 168.15 455.65 172.31 461.66 176.61 467.15 180.98 472.63 185.05 477.64 189.1 482.23 193.12 489.14 198.53 502.62 208.58 509.99 213.32 515.69 216.19 521.94 219.16 528.91 222.26 536.8 225.17 545.55 228.29 555.14 231.66 565.52 234.94 576.51 238.53 587.83 242.44 599.2 246.35 610.22 250.63 620.4 255.28 629.45 259.96 636.83 265.03 642.09 270.46 645.34 275.96 646.13 281.81 644.47 288 641.1 294.24 635.95 300.8 629.6 307.63 623.32 314.51 617.34 321.64 612.44 328.99 609.76 336.37 609.33 343.94 611.44 351.69 616.4 359.44 623.54 367.35 632.23 375.39 641.92 383.44 651.08 391.43 658.74 399.36 664.64 407.3 667.66 415.19 667.54 423.03 664.64 430.91 658.78 438.77 650.5 446.63 640.64 454.56 629.64 462.53 618.29 470.54 607.38 478.68 597.33 486.91 588.56 495.24 581.52 503.73 576.12 512.35 572.29 521.1 570.17 530.01 569.17 539.04 568.91 548.15 569.51 557.38 570.13 566.63 570.43 575.83 570.65 585.01 570.03 594.03 568.42 602.75 566.2 611.25 562.84 619.29 558.39 626.72 553.24 633.68 547.12 639.83 540.18 645.06 532.73 649.57 524.67 653.01 516.17 655.28 507.4 656.75 498.38 657.01 489.24 656.08 480 654.45 470.75 651.75 461.57 648.1 452.39 644.09 443.32 639.43 434.43 634.28 425.54 629.32 416.83 624.26 408.31 619.29 399.79 615.08 391.65 611.37 383.86 608.28 376.05 606.2 368.56 604.78 361.37 603.99 354.11 604.17 347.09 604.84 340.27 605.87 333.32 607.56 326.49 609.35 319.75 611.08 312.78 613.07 305.82 614.73 298.8 615.92 291.5 617.01 284.09 617.41 276.56 617.08 268.74 616.38 260.8 614.85 252.8 612.46 244.64 609.62 236.53 605.93 228.58 601.45 220.75 596.53 213.3 590.89 206.37 584.61 199.89 577.99 194.14 570.83 189.25 563.24 184.99 555.41 181.64 547.24 179.23 538.82 177.31 530.27 176.13 521.55 175.57 512.72 175.04 503.83 174.75 494.89 174.53 485.95 173.79 477 172.79 468.08 171.44 459.21 169.33 450.36 166.86 441.58 164.16 432.9 161 424.23 157.98 415.66 155.36 407.22 153 398.78 151.59 390.65 151.24 382.83 151.67 375 153.28 367.47 156 360.24 159.38 352.99 163.6 346 168.43 339.3 173.36 332.53 178.49 326.01 183.63 319.73 188.31 313.36 192.74 307.18 196.84 301.19 200.28 295.06 203.42 289.07 206.33 283.2 208.74 277.14 211.14 271.16 213.67 265.23 216.08 259.08 218.86 252.94 222.12 246.82 225.59 240.45 229.68 234.08 234.42 227.72 239.53 221.15 245.3 214.61 251.67 208.14 258.42 201.54 265.69 195.08 273.39 188.82 281.37 182.57 289.67 176.63 298.2 171.08 306.89 165.71 315.73 160.87 324.62 156.63 333.6 152.74 342.58 149.57 351.51 147.19 360.48 145.27 369.37 144.2 378.13 144 386.91 144.28 395.55 145.41 403.98 147.38" stroke-dasharray="4 3" transform="rotate(16.16, 400, 400)" opacity="0.20"></path><path d="M395.8 158.11C403.69 160.37 411.19 163.26 418.27 166.68 425.33 170.2 431.96 174.11 438.17 178.29 444.37 182.38 450.16 186.62 455.58 190.95 461.05 195.01 466.22 199.1 471.16 203.16 476.29 206.87 481.36 210.54 486.48 214.18 492.01 217.46 497.81 220.73 504.01 224.01 510.86 226.99 518.3 230.05 526.39 233.21 535.22 236.15 544.7 239.27 554.75 242.58 565.24 245.78 575.98 249.24 586.66 252.97 597.03 256.66 606.71 260.67 615.28 265.01 625.37 271.69 633.14 286.82 630.37 295.23 626.55 300.98 621.38 307.04 615.41 313.38 609.78 319.75 604.64 326.39 600.65 333.27 598.77 340.17 598.95 347.29 601.39 354.61 606.35 361.93 613.2 369.46 621.39 377.16 630.48 384.86 639.1 392.56 646.43 400.25 652.27 407.95 655.59 415.65 656.11 423.35 654.15 431.09 649.44 438.86 642.39 446.65 633.7 454.52 623.7 462.44 613.04 470.43 602.44 478.53 592.28 486.72 583 495 575.05 503.4 568.46 511.92 563.25 520.51 559.62 529.22 557.15 538 555.59 546.8 555.06 555.64 554.87 564.44 554.71 573.12 554.81 581.71 554.44 590.07 553.41 598.08 552.08 605.82 549.85 613.05 546.71 619.66 543.05 625.79 538.47 631.14 533.07 635.59 527.21 639.38 520.67 642.17 513.56 643.88 506.17 644.87 498.37 644.79 490.3 643.63 482.08 641.88 473.7 639.19 465.26 635.65 456.78 631.84 448.29 627.44 439.86 622.61 431.43 617.97 423.07 613.23 414.82 608.57 406.56 604.57 398.59 601.01 390.9 597.98 383.18 595.85 375.7 594.3 368.44 593.3 361.1 593.18 353.91 593.5 346.86 594.15 339.67 595.45 332.53 596.86 325.42 598.26 318.11 599.97 310.76 601.42 303.34 602.5 295.7 603.56 287.97 604.06 280.16 603.93 272.18 603.55 264.17 602.43 256.19 600.57 248.2 598.33 240.38 595.33 232.85 591.6 225.56 587.48 218.75 582.68 212.55 577.26 206.85 571.52 201.92 565.24 197.83 558.5 194.33 551.53 191.67 544.19 189.84 536.55 188.4 528.77 187.56 520.76 187.21 512.6 186.79 504.37 186.5 496.03 186.2 487.64 185.33 479.23 184.17 470.8 182.67 462.4 180.43 453.99 177.86 445.62 175.09 437.32 171.89 429.03 168.85 420.81 166.19 412.68 163.8 404.56 162.3 396.71 161.82 389.15 162.07 381.57 163.47 374.26 165.95 367.22 169.09 360.15 173.09 353.31 177.75 346.72 182.58 340.07 187.7 333.62 192.91 327.38 197.77 321.04 202.45 314.86 206.86 308.83 210.65 302.68 214.13 296.63 217.35 290.67 220.02 284.54 222.59 278.46 225.15 272.43 227.47 266.2 230 259.99 232.86 253.79 235.78 247.39 239.19 241 243.13 234.65 247.34 228.13 252.13 221.67 257.49 215.31 263.17 208.87 269.38 202.59 276.04 196.55 282.99 190.55 290.31 184.89 297.91 179.63 305.72 174.57 313.73 170.03 321.86 166.08 330.11 162.48 338.42 159.57 346.72 157.41 355.08 155.69 363.39 154.77 371.59 154.68 379.81 155.02 387.9 156.17 395.79 158.11" stroke-dasharray="7 7" transform="rotate(20.200000000000003, 400, 400)" opacity="0.24"></path><path d="M388.35 168.84C395.74 171.04 402.79 173.84 409.52 177.14 416.23 180.55 422.62 184.33 428.7 188.4 434.8 192.39 440.62 196.55 446.22 200.82 451.92 204.86 457.49 208.95 462.99 213.03 468.74 216.81 474.58 220.56 480.61 224.28 487.05 227.68 493.84 231.07 501.06 234.46 508.83 237.57 517.12 240.73 525.92 243.96 535.22 246.97 544.93 250.12 554.93 253.43 565.03 256.59 575.04 259.97 584.68 263.59 593.74 267.13 601.88 270.95 608.74 275.05 616.23 281.32 619.79 295.4 615.93 303.22 611.89 308.55 606.89 314.18 601.42 320.09 596.51 326.02 592.22 332.22 589.1 338.67 587.95 345.13 588.66 351.83 591.37 358.76 596.3 365.69 602.85 372.85 610.56 380.22 619.06 387.59 627.15 395 634.13 402.44 639.86 409.9 643.4 417.39 644.47 424.93 643.35 432.49 639.72 440.11 633.85 447.79 626.36 455.52 617.44 463.33 607.63 471.22 597.58 479.18 587.6 487.23 578.13 495.35 569.6 503.56 562.11 511.85 555.77 520.18 550.8 528.58 546.94 536.98 544.03 545.36 542.21 553.71 540.94 561.97 539.97 570.04 539.5 577.97 538.89 585.62 537.93 592.87 536.95 599.83 535.34 606.26 533.04 612.06 528.73 619.68 515.8 629.92 507.41 632.23 501.34 632.82 494.78 632.45 487.84 631.11 480.73 629.29 473.34 626.63 465.75 623.22 458.09 619.61 450.3 615.48 442.44 610.96 434.56 606.64 426.64 602.22 418.71 597.84 410.78 594.07 403.02 590.66 395.43 587.7 387.82 585.54 380.34 583.87 372.99 582.69 365.59 582.3 358.25 582.3 350.97 582.61 343.58 583.53 336.19 584.57 328.78 585.64 321.24 587.04 313.63 588.25 305.97 589.17 298.18 590.15 290.34 590.66 282.49 590.66 274.59 590.48 266.75 589.68 259.05 588.23 251.46 586.49 244.16 584.07 237.25 580.98 230.67 577.58 224.64 573.53 219.27 568.9 214.41 563.97 210.31 558.52 207.01 552.61 204.22 546.47 202.19 539.94 200.87 533.08 199.81 526.08 199.23 518.81 199.01 511.35 198.62 503.8 198.27 496.1 197.84 488.31 196.82 480.49 195.49 472.6 193.83 464.69 191.46 456.77 188.8 448.85 185.97 440.96 182.76 433.07 179.7 425.22 177.03 417.42 174.61 409.63 173.04 402.08 172.43 394.76 172.51 387.44 173.69 380.34 175.91 373.47 178.79 366.57 182.54 359.87 186.97 353.38 191.66 346.82 196.7 340.44 201.91 334.22 206.89 327.91 211.76 321.74 216.43 315.68 220.57 309.5 224.41 303.4 227.98 297.37 231 291.2 233.84 285.06 236.58 278.96 238.98 272.7 241.47 266.45 244.13 260.23 246.73 253.85 249.67 247.5 253.02 241.21 256.51 234.79 260.49 228.46 264.96 222.26 269.67 216.03 274.87 209.99 280.53 204.2 286.43 198.49 292.73 193.13 299.36 188.18 306.18 183.44 313.26 179.22 320.52 175.57 327.91 172.26 335.42 169.61 342.99 167.67 350.62 166.15 358.25 165.37 365.83 165.37 373.44 165.78 380.96 166.93 388.34 168.83" stroke-dasharray="7 10" transform="rotate(24.24, 400, 400)" opacity="0.28"></path><path d="M382.96 179.56C389.88 181.7 396.58 184.4 403.06 187.57 409.55 190.86 415.83 194.51 421.93 198.45 428.07 202.33 434.08 206.4 440.01 210.59 446.06 214.59 452.13 218.66 458.26 222.74 464.64 226.56 471.21 230.37 478.04 234.16 485.22 237.66 492.76 241.16 500.69 244.65 509.01 247.88 517.71 251.14 526.76 254.46 536.04 257.56 545.49 260.77 554.94 264.1 564.23 267.28 573.16 270.64 581.46 274.19 589.01 277.64 595.5 281.33 600.66 285.26 605.74 291.22 605.82 304.49 601.26 311.82 597.22 316.8 592.55 322.06 587.68 327.6 583.52 333.14 580.08 338.95 577.77 345.02 577.29 351.09 578.47 357.42 581.39 363.99 586.25 370.55 592.5 377.36 599.72 384.41 607.65 391.45 615.22 398.57 621.83 405.75 627.42 412.95 631.1 420.21 632.63 427.53 632.26 434.88 629.6 442.31 624.87 449.8 618.56 457.33 610.77 464.95 601.94 472.63 592.63 480.37 583.1 488.18 573.74 496.05 564.96 503.96 556.9 511.91 549.72 519.87 543.66 527.84 538.57 535.78 534.39 543.63 531.26 551.42 528.79 559.06 526.78 566.45 525.42 573.69 524.18 580.59 522.86 587.06 521 596.06 514.94 610.39 510.35 615.37 504.8 618.73 490.39 620.29 481.77 618.52 475.73 616.66 469.32 614.06 462.59 610.81 455.79 607.4 448.75 603.54 441.52 599.34 434.27 595.33 426.85 591.21 419.31 587.12 411.76 583.56 404.27 580.31 396.84 577.42 389.39 575.25 381.99 573.5 374.63 572.16 367.23 571.53 359.83 571.24 352.43 571.24 344.97 571.8 337.47 572.49 329.93 573.23 322.32 574.3 314.68 575.25 307.01 575.98 299.3 576.81 291.6 577.28 283.97 577.32 276.4 577.26 268.98 576.68 261.81 575.54 254.84 574.19 248.24 572.24 242.11 569.69 233.78 565.2 221.05 553.04 216.85 545.55 214.7 540.2 213.19 534.45 212.28 528.35 211.5 522.11 211.09 515.58 210.91 508.82 210.48 501.97 210.02 494.93 209.42 487.76 208.23 480.54 206.73 473.22 204.9 465.84 202.42 458.44 199.68 450.99 196.8 443.54 193.59 436.08 190.54 428.62 187.87 421.17 185.44 413.73 183.8 406.48 183.07 399.42 182.99 392.36 183.94 385.47 185.9 378.78 188.5 372.05 191.96 365.49 196.13 359.09 200.61 352.64 205.51 346.33 210.66 340.14 215.67 333.88 220.68 327.71 225.55 321.63 229.99 315.46 234.18 309.34 238.11 303.28 241.51 297.09 244.7 290.94 247.74 284.83 250.37 278.58 252.98 272.35 255.66 266.17 258.14 259.87 260.85 253.61 263.84 247.43 266.83 241.18 270.21 235.03 273.99 229.05 277.91 223.06 282.27 217.29 287.04 211.8 291.99 206.41 297.33 201.37 303.02 196.75 308.87 192.35 315.01 188.44 321.39 185.1 327.88 182.08 334.55 179.69 341.35 177.97 348.2 176.63 355.13 175.99 362.08 176.08 369.06 176.54 376.02 177.7 382.95 179.56" stroke-dasharray="1 5" transform="rotate(28.28, 400, 400)" opacity="0.32"></path><path d="M380.56 190.29C387.08 192.35 393.51 194.95 399.82 198 406.15 201.15 412.41 204.66 418.6 208.46 424.86 212.22 431.1 216.17 437.38 220.27 443.79 224.2 450.31 228.22 456.97 232.28 463.85 236.11 470.97 239.95 478.34 243.79 485.98 247.37 493.91 250.95 502.13 254.54 510.58 257.88 519.24 261.24 528.04 264.65 536.86 267.85 545.61 271.13 554.12 274.52 562.27 277.74 569.85 281.1 576.64 284.63 585.05 289.85 594.01 301.22 594.09 307.45 591.4 313.87 580.55 327.98 574.25 335.69 569.54 343.64 567.57 360.82 571.44 370.05 576.2 376.27 582.13 382.75 588.88 389.48 596.25 396.21 603.31 403.03 609.54 409.93 614.95 416.84 618.72 423.83 620.62 430.9 620.89 437.99 619.11 445.16 615.43 452.4 610.26 459.67 603.62 467.01 595.85 474.4 587.43 481.83 578.56 489.31 569.58 496.82 560.86 504.34 552.57 511.86 544.88 519.35 538.03 526.82 531.97 534.2 526.7 541.46 522.37 548.62 518.71 555.58 515.59 562.26 513.18 568.76 511.05 574.9 509.05 580.61 506.52 588.45 500.49 600.62 496.51 604.66 491.9 607.25 479.92 607.84 472.61 605.89 467.48 604.02 461.92 601.51 455.99 598.42 450 595.23 443.69 591.64 437.09 587.74 430.47 584.03 423.6 580.21 416.5 576.39 409.39 573.05 402.24 569.95 395.06 567.16 387.87 565 380.65 563.18 373.4 561.71 366.14 560.87 358.83 560.33 351.48 560.04 344.12 560.26 336.71 560.62 329.28 561.04 321.84 561.79 314.39 562.46 306.97 562.97 299.59 563.62 292.3 563.98 285.15 564 278.15 563.99 271.38 563.53 264.92 562.61 255.87 560.75 240.75 554.14 235 549.39 230.52 543.85 225.17 530.25 224.01 522.35 223.42 516.84 223.07 511.03 222.86 504.95 222.34 498.79 221.72 492.41 220.92 485.86 219.54 479.26 217.86 472.52 215.87 465.67 213.29 458.81 210.5 451.86 207.59 444.86 204.39 437.85 201.37 430.79 198.71 423.72 196.27 416.64 194.59 409.7 193.75 402.92 193.51 396.12 194.24 389.47 195.92 382.95 198.23 376.42 201.38 370.01 205.24 363.72 209.46 357.39 214.16 351.16 219.16 345.03 224.14 338.83 229.19 332.71 234.2 326.65 238.86 320.51 243.34 314.42 247.61 308.38 251.41 302.23 254.98 296.12 258.37 290.04 261.34 283.87 264.21 277.73 267.07 271.64 269.65 265.47 272.33 259.37 275.18 253.37 277.93 247.33 280.96 241.43 284.29 235.7 287.65 230.01 291.37 224.55 295.44 219.37 299.62 214.32 304.16 209.63 309.04 205.35 314.02 201.29 319.32 197.72 324.88 194.68 330.53 191.95 336.41 189.81 342.47 188.3 348.58 187.14 354.83 186.63 361.2 186.8 367.57 187.31 374.04 188.47 380.56 190.28" stroke-dasharray="7 6" transform="rotate(32.32, 400, 400)" opacity="0.35"></path><path d="M381.6 201.01C387.77 203 393.96 205.49 400.15 208.4 406.36 211.42 412.6 214.78 418.88 218.42 425.22 222.05 431.65 225.87 438.18 229.84 444.83 233.7 451.64 237.65 458.63 241.65 465.77 245.47 473.13 249.31 480.7 253.17 488.43 256.8 496.36 260.45 504.44 264.1 512.58 267.53 520.77 270.99 528.9 274.48 536.87 277.78 544.58 281.14 551.86 284.58 558.67 287.87 564.78 291.27 570.01 294.8 576.13 300 581.16 311.15 579.96 317.17 576.68 323.34 566.46 336.8 561.15 344.11 557.59 351.64 557.38 367.92 561.53 376.67 566.15 382.58 571.76 388.75 578.04 395.15 584.87 401.56 591.42 408.07 597.27 414.67 602.46 421.27 606.25 427.96 608.44 434.72 609.25 441.5 608.25 448.36 605.52 455.28 601.45 462.21 595.93 469.21 589.26 476.23 581.85 483.27 573.8 490.34 565.42 497.4 557.06 504.44 548.85 511.46 540.98 518.4 533.67 525.29 526.94 532.07 520.85 538.67 515.52 545.16 510.8 551.41 506.64 557.37 501.59 565.82 493.57 580.21 489.96 585.86 482.4 592.93 467.72 595.27 461.33 593.22 456.86 591.37 451.98 588.97 446.72 586.06 441.41 583.09 435.75 579.77 429.74 576.17 423.72 572.74 417.39 569.22 410.78 565.67 404.16 562.54 397.41 559.6 390.58 556.91 383.76 554.77 376.84 552.91 369.86 551.33 362.89 550.32 355.85 549.55 348.78 549 341.71 548.93 334.62 548.97 327.54 549.08 320.49 549.52 313.49 549.91 306.57 550.18 299.76 550.62 293.1 550.83 286.65 550.77 277.42 550.53 261.14 548.01 254.4 545.58 248.73 542.48 240.77 533.77 238.42 528.21 236.83 522.04 235.31 507.73 234.81 499.73 234.13 494.23 233.32 488.49 232.31 482.55 230.73 476.56 228.88 470.4 226.75 464.09 224.09 457.77 221.24 451.32 218.32 444.78 215.16 438.24 212.18 431.61 209.55 424.91 207.12 418.21 205.4 411.61 204.46 405.11 204.07 398.61 204.58 392.2 205.99 385.89 207.99 379.57 210.81 373.33 214.34 367.18 218.25 361 222.68 354.89 227.48 348.85 232.33 342.76 237.33 336.72 242.38 330.73 247.19 324.68 251.89 318.66 256.43 312.69 260.58 306.64 264.53 300.63 268.3 294.66 271.66 288.62 274.89 282.62 278.03 276.7 280.86 270.73 283.71 264.84 286.62 259.08 289.36 253.3 292.26 247.69 295.38 242.26 298.43 236.9 301.76 231.78 305.37 226.96 310.98 220.1 323.83 208.68 331.03 204.32 338.56 200.92 354.87 197.49 363.55 197.55 369.4 198.1 375.42 199.25 381.59 201.01" stroke-dasharray="7 4" transform="rotate(36.36, 400, 400)" opacity="0.39"></path><path d="M385.88 211.74C391.75 213.65 397.72 216.02 403.77 218.79 409.84 221.67 416.02 224.87 422.3 228.34 435.01 235.25 448.35 242.87 462.29 250.86 476.57 258.22 491.47 265.74 506.56 273.32 521.38 280.12 535.45 287.07 547.73 294.22 557.92 300.77 564.8 307.76 567.54 315.28 567.4 322.46 563.61 330.38 557.25 339.07 551.53 347.62 546.86 357.07 545.13 367.4 546.21 372.55 548.38 377.94 551.63 383.56 556.1 389.17 561.37 395.02 567.2 401.1 573.51 407.19 579.57 413.37 585.03 419.63 589.96 425.9 593.72 432.25 596.12 438.67 597.33 451.53 592.31 464.65 582.09 477.83 568.77 490.99 553.34 504.1 537.69 516.84 523.29 529.3 510.64 541.07 499.97 551.7 491.64 561.57 484.63 569.82 478.24 576.02 472.93 580.96 467.11 583.54 460.32 583.58 453.61 582.45 445.51 579.08 436 573.74 431.2 570.99 426.06 567.93 420.58 564.62 415.09 561.48 409.27 558.23 403.15 554.94 397.03 552.02 390.76 549.25 384.38 546.67 378 544.56 371.52 542.68 364.97 541.03 351.94 539.2 338.7 538.07 325.59 537.38 312.8 537.93 300.47 538.17 289.06 537.71 278.51 537.51 269.41 535.99 262.22 533.01 256.21 529.68 252.18 524.7 250.04 518.17 248.23 511.19 247.31 502.8 246.68 493.23 244.51 483.4 241.5 472.6 237.51 461.07 234.79 455.28 231.92 449.34 229.01 443.26 225.9 437.19 222.98 430.99 220.39 424.69 217.99 418.39 216.24 412.13 215.21 405.94 214.68 399.75 214.99 393.61 216.12 387.54 220.04 375.36 226.83 363.37 235.64 351.61 244.96 339.69 254.83 327.89 264.54 316.27 273.03 304.45 280.9 292.78 288.21 281.42 294.26 269.98 300.3 259 306.66 248.78 312.53 238.87 319.27 230.07 327.01 222.74 334.71 216.24 343.54 211.59 353.4 209.08 360.93 208.13 377.18 209.46 385.87 211.73" stroke-dasharray="5 0" transform="rotate(40.400000000000006, 400, 400)" opacity="0.43"></path><path d="M392.65 222.46C403.84 226.28 415.62 231.67 427.89 238.23 440.28 244.83 453.28 252.15 466.73 259.9 480.26 267.15 494.03 274.62 507.51 282.18 520.33 289.08 531.95 296.14 541.44 303.37 548.92 310.05 553.27 317.09 554.04 324.56 552.73 331.7 548.69 339.45 542.99 347.87 538.43 356.13 535.19 365.18 534.68 375.03 538.71 384.82 546.27 395.47 556.36 406.98 568.09 418.49 577.81 430.35 583.67 442.4 585.77 454.47 582.41 466.71 574.28 478.9 563.06 491.04 549.32 503 534.67 514.47 520.45 525.63 507.2 536.01 495.42 545.22 485.48 553.7 476.85 560.63 469.09 565.65 462.48 569.59 455.85 571.42 448.75 571.02 441.94 569.69 434.16 566.42 425.26 561.45 416.34 556.44 406.23 550.55 394.97 544.22 383.72 539.15 371.94 534.61 359.92 530.8 348.03 528.67 336.07 527.11 324.39 525.93 313.11 525.91 302.47 525.66 292.9 524.89 284.14 524.47 276.83 522.99 271.29 520.3 266.63 517.41 263.61 513.1 262.08 507.41 260.49 501.39 259.44 494.05 258.42 485.56 255.83 476.85 252.42 467.15 248.17 456.66 242.3 446.09 236.35 434.84 231.22 423.06 226.81 411.27 225.08 399.52 226.33 387.93 229.6 376.3 235.62 364.75 243.71 353.36 252.54 341.87 262.18 330.45 271.96 319.22 280.88 307.86 289.37 296.69 297.36 285.87 304.17 275.08 310.81 264.8 317.52 255.31 323.59 246.19 330.23 238.16 337.62 231.56 344.82 225.74 352.99 221.65 362.16 219.54 371.29 218.45 381.45 219.4 392.64 222.46" stroke-dasharray="10 4" transform="rotate(44.44, 400, 400)" opacity="0.47"></path><path d="M400.71 233.19C411.36 236.81 422.6 241.89 434.3 248.07 446.06 254.33 458.26 261.33 470.66 268.78 482.92 275.85 495.03 283.19 506.44 290.68 517.01 297.61 526.08 304.71 532.93 311.96 538.04 318.73 540.35 325.81 539.73 333.23 537.79 340.34 533.92 347.97 529.12 356.14 525.79 364.16 523.87 372.85 524.43 382.23 528.86 391.55 536.19 401.64 545.53 412.47 556.26 423.3 565.29 434.4 571.11 445.6 573.9 456.8 571.99 468.08 565.78 479.21 556.66 490.25 544.82 501 531.58 511.18 518.11 521.04 504.93 530.06 492.65 537.91 481.66 545.1 471.77 550.82 462.8 554.79 454.89 557.88 447.29 559.09 439.62 558.36 432.35 556.91 424.53 553.79 415.96 549.2 407.43 544.65 398 539.29 387.68 533.49 377.36 528.78 366.7 524.43 355.95 520.63 345.33 518.27 334.83 516.36 324.79 514.74 315.13 514.19 306.25 513.48 298.49 512.36 288.55 510.9 276.75 503.07 274.37 496.14 272.78 490.9 271.45 484.45 269.95 476.91 266.94 469.2 263.17 460.51 258.7 450.98 252.86 441.4 247.05 431.07 242.06 420.12 237.72 409.16 235.82 398.13 236.62 387.13 239.25 376.13 244.47 365.12 251.75 354.22 259.92 343.26 269.13 332.35 278.73 321.63 287.85 310.87 296.75 300.31 305.27 290.15 312.82 280.1 320.11 270.59 327.34 261.89 333.87 253.59 340.73 246.35 348.1 240.48 355.18 235.33 363.05 231.78 371.78 230.05 380.43 229.22 390.06 230.24 400.71 233.19" stroke-dasharray="6 4" transform="rotate(48.48, 400, 400)" opacity="0.51"></path><path d="M408.65 243.91C418.72 247.33 429.26 252.09 440.08 257.88 450.9 263.78 461.92 270.4 472.84 277.51 483.49 284.34 493.64 291.49 502.8 298.81 511.09 305.69 517.77 312.76 522.33 319.97 525.51 326.78 526.36 333.85 524.92 341.2 522.81 348.26 519.46 355.75 515.72 363.69 513.61 371.47 512.91 379.82 514.36 388.74 519.08 397.61 526.1 407.12 534.69 417.24 544.46 427.37 552.78 437.66 558.45 447.97 561.74 458.26 561.05 468.51 556.58 478.54 549.47 488.44 539.62 497.97 528.07 506.87 515.84 515.44 503.31 523.17 491.16 529.75 479.76 535.76 469.14 540.41 459.32 543.49 450.36 545.85 441.87 546.57 433.59 545.61 425.74 544.12 417.68 541.19 409.26 536.99 400.92 532.89 392.02 528.05 382.56 522.77 373.09 518.41 363.55 514.27 354.12 510.53 344.82 508 335.82 505.8 327.41 503.82 319.34 502.8 312.11 501.65 305.99 500.19 298.14 498.33 288.91 490.8 286.74 484.55 284.97 479.92 283.24 474.2 281.23 467.48 277.81 460.65 273.73 452.86 269.1 444.24 263.35 435.57 257.72 426.14 252.9 416.03 248.66 405.92 246.63 395.64 247.01 385.33 249.01 375.01 253.43 364.64 259.83 354.34 267.22 344.02 275.79 333.74 284.98 323.66 294 313.6 303.05 303.77 311.89 294.37 320 285.12 327.88 276.45 335.61 268.58 342.71 261.12 349.96 254.68 357.51 249.52 364.73 245.02 372.53 241.99 381 240.61 389.37 240.01 398.57 241.09 408.65 243.91" stroke-dasharray="0 0" transform="rotate(52.52, 400, 400)" opacity="0.54"></path><path d="M415.06 254.64C424.5 257.84 434.16 262.27 443.88 267.65 453.56 273.16 463.14 279.38 472.34 286.1 481.23 292.62 489.36 299.49 496.34 306.58 502.56 313.32 507.19 320.27 509.94 327.37 511.74 334.13 511.68 341.13 509.96 348.35 508.08 355.33 505.48 362.65 502.88 370.33 501.93 377.87 502.3 385.87 504.47 394.32 509.34 402.72 516.01 411.64 523.85 421.04 532.68 430.44 540.29 439.89 545.72 449.26 549.33 458.61 549.62 467.82 546.66 476.72 541.42 485.49 533.56 493.82 523.85 501.47 513.2 508.84 501.82 515.35 490.37 520.79 479.19 525.75 468.43 529.47 458.26 531.79 448.7 533.56 439.61 533.9 430.88 532.8 422.53 531.33 414.24 528.63 405.91 524.83 397.67 521.16 389.2 516.83 380.51 512.04 371.82 508.04 363.32 504.14 355.16 500.49 347.07 497.86 339.48 495.43 332.57 493.17 322.99 490.97 309.01 486.14 304.76 482.67 301.32 478.64 295.8 466.14 292.2 457.56 288.41 451.46 284.1 444.48 279.38 436.69 273.77 428.87 268.36 420.29 263.74 411.03 259.64 401.76 257.5 392.28 257.5 382.71 258.91 373.15 262.53 363.51 268.02 353.91 274.51 344.32 282.28 334.79 290.83 325.46 299.48 316.19 308.37 307.18 317.24 298.61 325.65 290.24 333.91 282.44 342.02 275.43 349.62 268.81 357.26 263.16 365.02 258.7 372.49 254.82 380.33 252.28 388.62 251.22 396.82 250.83 405.62 251.96 415.06 254.64" stroke-dasharray="8 3" transform="rotate(56.56, 400, 400)" opacity="0.58"></path><path d="M418.82 265.36C427.54 268.34 436.22 272.43 444.71 277.39 453.12 282.49 461.19 288.28 468.66 294.55 475.82 300.71 482.09 307.24 487.17 314 491.66 320.52 494.73 327.26 496.23 334.15 497.17 340.78 496.73 347.62 495.15 354.64 493.79 361.47 492.11 368.58 490.65 375.95 490.76 383.21 492.02 390.82 494.74 398.77 499.64 406.68 505.91 414.98 513.01 423.63 520.93 432.28 527.82 440.88 532.93 449.3 536.7 457.7 537.74 465.86 536.06 473.65 532.47 481.32 526.49 488.49 518.67 494.98 509.8 501.23 499.93 506.65 489.62 511.07 479.24 515.11 468.93 518.05 458.96 519.75 449.32 521.05 440.06 521.12 431.19 519.96 422.61 518.56 414.23 516.11 406.05 512.71 397.95 509.47 389.89 505.62 381.9 501.32 373.9 497.66 366.34 494.01 359.28 490.51 352.27 487.83 345.87 485.26 340.19 482.79 332.27 480.08 320.81 474.39 317.13 470.75 313.7 466.75 307.11 455.16 302.8 447.39 298.73 441.91 294.25 435.64 289.53 428.62 284.12 421.58 278.97 413.82 274.58 405.4 270.64 396.98 268.43 388.32 268.1 379.55 268.97 370.8 271.82 361.96 276.38 353.16 281.92 344.39 288.75 335.68 296.47 327.19 304.48 318.79 312.92 310.67 321.51 303 329.88 295.53 338.23 288.63 346.47 282.49 354.36 276.71 362.24 271.83 370.13 268.03 377.79 264.74 385.63 262.65 393.71 261.89 401.72 261.69 410.09 262.83 418.82 265.36" stroke-dasharray="3 10" transform="rotate(60.599999999999994, 400, 400)" opacity="0.62"></path><path d="M419.25 276.09C427.19 278.84 434.84 282.57 442.08 287.1 449.25 291.77 455.87 297.09 461.76 302.88 467.4 308.62 472.11 314.73 475.72 321.1 478.94 327.3 480.96 333.74 481.76 340.32 482.34 346.72 481.95 353.31 480.84 360.05 480.18 366.65 479.45 373.46 479.07 380.46 480.08 387.38 482.05 394.56 485.16 401.97 489.98 409.35 495.8 417.01 502.18 424.89 509.23 432.77 515.39 440.49 520.12 447.97 523.89 455.42 525.47 462.57 524.8 469.29 522.63 475.91 518.34 482.01 512.34 487.44 505.31 492.67 497.14 497.12 488.31 500.67 479.16 503.93 469.8 506.22 460.53 507.44 451.36 508.37 442.41 508.26 433.79 507.12 425.34 505.83 417.15 503.65 409.26 500.65 401.44 497.82 393.83 494.42 386.48 490.59 379.13 487.29 372.36 483.91 366.21 480.58 357.33 476.59 343.07 469.57 337.77 466.2 333.05 463.15 325.75 455.31 322.39 450.13 319.47 446.52 316.36 442.24 313 437.29 308.74 432.33 304.2 426.68 299.56 420.36 294.39 414.03 289.54 407.05 285.42 399.47 281.67 391.88 279.44 384.06 278.83 376.14 279.21 368.24 281.33 360.26 284.99 352.32 289.55 344.43 295.36 336.62 302.1 329.04 309.24 321.56 316.95 314.37 324.96 307.62 332.94 301.08 341.03 295.08 349.09 289.79 356.97 284.83 364.82 280.69 372.63 277.52 380.28 274.79 387.99 273.12 395.75 272.61 403.46 272.58 411.31 273.72 419.25 276.09" stroke-dasharray="7 11" transform="rotate(64.64, 400, 400)" opacity="0.66"></path><path d="M416.29 286.81C423.39 289.32 430.02 292.7 436.1 296.79 442.11 301.01 447.48 305.84 452.08 311.11 456.51 316.37 460.07 322.01 462.68 327.91 465.09 333.7 466.56 339.74 467.14 345.93 467.74 351.99 467.71 358.23 467.27 364.59 467.39 370.85 467.59 377.28 468.15 383.84 469.89 390.34 472.38 397.03 475.71 403.85 480.35 410.66 485.67 417.63 491.34 424.72 497.54 431.81 502.99 438.67 507.29 445.22 511.88 454.84 510.5 471.86 504.74 478.9 499.48 483.23 493.07 486.85 485.87 489.67 478.24 492.28 470.2 494.04 462.02 494.9 453.78 495.57 445.59 495.37 437.6 494.29 429.68 493.14 421.98 491.24 414.59 488.65 407.24 486.2 400.17 483.25 393.44 479.87 386.71 476.91 380.62 473.82 375.17 470.7 367.29 466.78 354.64 459.45 349.77 455.82 345.16 452.48 337.18 444.44 333.17 439.44 329.87 436.02 326.42 432.04 322.78 427.52 318.43 423 313.94 417.9 309.46 412.24 304.6 406.57 300.09 400.33 296.25 393.56 292.74 386.79 290.52 379.83 289.69 372.78 289.65 365.76 291.1 358.67 293.91 351.65 297.5 344.68 302.25 337.81 307.91 331.18 314.04 324.64 320.8 318.4 327.95 312.59 335.23 306.97 342.73 301.86 350.28 297.4 357.78 293.22 365.3 289.77 372.74 287.2 380.12 284.97 387.47 283.68 394.73 283.4 401.98 283.5 409.19 284.62 416.29 286.81" stroke-dasharray="1 0" transform="rotate(68.68, 400, 400)" opacity="0.70"></path><path d="M410.46 297.54C422.91 302.26 433.08 309.84 440.49 319.25 447.56 328.72 451.65 339.54 453 351 455 362.15 456.13 374 457.89 386.11 463.38 398.08 471.24 410.57 480.51 423.15 491.38 435.72 498.57 447.14 500.57 456.83 499.33 466.27 492.51 473.59 481.87 478.18 469.51 482.21 455.45 483.37 441.4 481.51 427.31 479.56 413.75 475.3 401.56 469.14 389.36 464.28 379.47 458.81 371.82 453.17 363.83 448.99 357.5 444.11 352.36 438.38 345.76 433.31 339.08 426.66 332.11 418.35 323.09 410.12 314.21 399.95 307.09 388.02 301.03 376.09 299.78 363.6 303.2 351.39 309.17 339.37 318.95 327.93 330.92 318 343.72 308.7 357.45 301.43 371.04 297.05 384.63 293.81 398 293.81 410.46 297.54" stroke-dasharray="10 10" transform="rotate(72.72, 400, 400)" opacity="0.73"></path><path d="M402.78 308.26C413.48 312.43 421.99 319.06 428.1 327.31 434.13 335.69 437.92 345.35 439.85 355.62 442.71 365.74 445.2 376.47 448.26 387.37 454.15 398.18 461.58 409.3 469.67 420.25 478.96 431.21 485.34 440.91 487.74 448.94 487.97 456.8 483.7 462.72 476.02 466.31 466.84 469.55 455.68 470.41 443.99 468.8 432.07 467.21 420.27 463.67 409.4 458.42 398.53 454.15 389.49 449.12 382.18 443.78 374.51 439.53 367.96 434.6 362.19 428.96 355.2 423.89 348.13 417.57 341.01 410 332.48 402.52 324.36 393.53 317.93 383.16 312.34 372.8 310.7 362.11 312.9 351.77 317.09 341.6 324.63 332.06 334.3 323.92 344.89 316.29 356.62 310.46 368.4 307.11 380.35 304.63 392.08 304.88 402.78 308.26" stroke-dasharray="7 3" transform="rotate(76.76, 400, 400)" opacity="0.77"></path><path d="M394.61 318.99C403.61 322.59 410.8 328.26 416.15 335.32 421.56 342.54 425.45 350.92 428.17 359.87 431.8 368.76 435.33 378.21 439.24 387.73 445.15 397.22 451.92 406.87 458.83 416.21 466.61 425.54 472.08 433.64 474.57 440.19 474.56 449.01 457.74 457.16 444.36 456.18 434.86 454.95 425.03 452.08 415.59 447.69 406.13 444.02 397.89 439.53 390.83 434.61 383.46 430.48 376.76 425.69 370.58 420.31 363.5 415.37 356.4 409.47 349.47 402.66 341.68 395.95 334.44 388.09 328.77 379.26 323.73 370.43 321.86 361.49 323.05 352.99 325.69 344.61 331.14 336.89 338.52 330.42 346.74 324.35 356.16 319.82 365.86 317.37 375.78 315.54 385.61 315.98 394.61 318.99" stroke-dasharray="0 4" transform="rotate(80.80000000000001, 400, 400)" opacity="0.81"></path><path d="M387.39 329.71C394.76 332.73 400.89 337.43 405.75 343.29 410.76 349.3 414.84 356.32 418.24 363.83 422.37 371.36 426.49 379.36 430.76 387.39 436.33 395.42 442.27 403.52 447.99 411.24 459.41 430.06 451.64 444.37 441.86 443.66 434.74 442.77 426.95 440.53 419.02 436.97 411.08 433.89 403.73 430.01 397.07 425.65 390.19 421.82 383.63 417.36 377.42 412.43 370.65 407.8 363.92 402.45 357.54 396.47 350.7 390.57 344.46 383.87 339.61 376.55 335.21 369.22 333.26 361.97 333.68 355.2 335.07 348.53 338.68 342.5 343.94 337.56 349.85 332.9 356.92 329.52 364.45 327.83 372.18 326.57 380.02 327.11 387.39 329.71" stroke-dasharray="1 4" transform="rotate(84.84, 400, 400)" opacity="0.85"></path><path d="M382.39 340.44C394.04 345.52 403.24 355.65 410.2 367.62 419.11 379.74 428.68 393.37 437.15 405.63 448.8 422.07 436.98 432.59 419.1 426.24 406.39 421.67 393.88 414.1 382.72 405.3 370.42 397.28 358.5 386.86 350.45 375.16 343.58 363.46 344.34 352.71 350.84 345.37 359.01 338.72 370.75 336.43 382.39 340.44" stroke-dasharray="2 11" transform="rotate(88.88, 400, 400)" opacity="0.89"></path><path d="M380.5 351.16C389.19 354.96 397.2 362.45 404 371.35 411.85 380.39 419.87 390.59 426.31 399.7 434.95 411.9 428.62 420.01 415.81 415.52 406.35 412.01 396.09 405.96 386.66 398.89 376.81 392.24 367.48 383.96 361.28 375.19 355.64 362.6 367.94 348.65 380.5 351.16" stroke-dasharray="2 1" transform="rotate(92.92, 400, 400)" opacity="0.92"></path><path d="M382.04 361.89C393.68 367.15 407.41 381.74 415.48 393.79 424.94 405.83 422.16 410.41 409.73 404.79 397.29 400.36 380.65 388.35 372.12 376.63 364.85 364.89 370.4 357.74 382.04 361.89" stroke-dasharray="2 8" transform="rotate(96.96, 400, 400)" opacity="0.96"></path></g></svg>